<mxfile host="app.diagrams.net" modified="2024-04-26T01:32:01.877Z" agent="Mozilla/5.0 (Windows NT 10.0; Win64; x64) AppleWebKit/537.36 (KHTML, like Gecko) Chrome/124.0.0.0 Safari/537.36 Edg/124.0.0.0" version="24.3.0" etag="i3ZjaPu99D2cUnuMClxU" type="github">
  <diagram name="第 1 页" id="-l8BHJOKRY7-3dPGuijN">
    <mxGraphModel>
      <root>
        <mxCell id="0" />
        <mxCell id="1" parent="0" />
      </root>
    </mxGraphModel>
  </diagram>
</mxfile>
